<svg width="229" height="155" viewBox="0 0 229 155" fill="none" xmlns="http://www.w3.org/2000/svg">
<g clip-path="url(#clip0_547_14)">
<path d="M53.1174 50.2121C53.6116 50.5222 54.1902 50.6733 54.7742 50.6449C55.1604 50.6449 55.1604 50.6449 56.4185 49.2601C63.0084 41.9527 73.2855 30.8494 81.5322 25.5697C110.794 6.87462 141.85 11.3011 168.844 32.3084C176.244 38.0702 182.647 43.9186 189.237 49.6186C189.635 49.9649 189.635 49.9649 188.938 50.9293C179.752 63.0357 169.337 74.1728 157.857 84.165C152.361 88.68 146.626 92.9023 140.679 96.8139C140.056 97.1972 140.056 97.1972 140.068 98.0503C140.068 102.687 139.807 102.502 141.165 102.032C153.211 97.939 160.137 95.0705 170.9 87.7878C186.77 77.0678 196.051 66.1005 208.433 52.2647C209.368 51.2137 209.368 51.2137 208.732 50.274C204.148 43.5353 200.423 40.1227 194.232 34.027C155.44 -4.06794 106.484 -16.0244 67.7919 28.7969C62.4852 34.9791 57.9259 40.9635 53.242 47.0963C52.4073 48.1844 52.3575 48.1967 52.4073 48.6048C52.4648 49.2021 52.7137 49.7655 53.1174 50.2121ZM142.248 55.6896C141.924 69.476 127.399 81.655 112.351 80.6535C97.3029 79.652 84.9454 65.0248 85.9171 50.6325C86.8887 36.2403 97.1285 26.7567 111.442 24.8031C102.56 28.2034 94.2509 34.5711 93.4163 46.5152C92.5817 58.4593 104.341 72.394 116.898 73.2472C129.455 74.1003 138.2 65.4452 142.248 55.6896ZM175.883 52.7098C175.397 52.3909 174.82 52.2349 174.238 52.2647C173.852 52.2647 173.852 52.2646 172.594 53.6495C166.004 60.9569 155.727 72.0726 147.48 77.3398C118.206 96.0349 87.1628 91.6084 60.1681 70.6012C52.7561 64.8393 46.3656 58.9909 39.7758 53.2909C39.3647 52.9447 39.3647 52.9447 40.0747 51.9803C49.2795 39.8706 59.7154 28.7333 71.2176 18.7445C76.69 14.2217 82.3947 9.98321 88.3089 6.0462C88.9317 5.6629 88.9317 5.6629 88.9193 4.80975C88.9193 0.160704 89.1933 0.346176 87.823 0.816026C75.777 4.90867 68.8632 7.78959 58.0878 15.0599C42.2298 25.7923 32.9492 36.7596 20.5544 50.5954C19.6201 51.6341 19.6201 51.6341 20.2554 52.5738C24.8521 59.3248 28.5643 62.7374 34.7555 68.8207C73.5596 107.002 122.516 118.934 161.208 74.1374C166.502 67.9552 171.062 61.9584 175.758 55.8256C176.58 54.7499 176.643 54.7252 176.58 54.3172C176.534 53.7193 176.289 53.1536 175.883 52.7098Z" fill="#29252F"/>
<path d="M206.839 154.136H204.783V135.49C204.783 129.308 211.323 124.362 216.892 124.362C222.771 124.362 229 128.504 229 135.49V154.136H226.957V136.356C226.989 135.023 226.752 133.698 226.262 132.457C225.771 131.217 225.036 130.086 224.1 129.13C223.164 128.175 222.046 127.414 220.81 126.893C219.575 126.371 218.247 126.099 216.904 126.093C211.921 126.093 206.851 131.125 206.851 136.356L206.839 154.136ZM126.004 154.136H123.949V135.849C123.949 129.666 129.43 124.028 134.998 124.028C140.567 124.028 146.048 129.283 146.048 135.49V154.136H143.992V147.484H126.054L126.004 154.136ZM143.992 145.765V136.331C143.992 130.928 140.068 125.734 134.998 125.734C129.928 125.734 126.054 131.336 126.054 136.677V145.765H143.992ZM0 154.136V124.758H2.04297V154.136H0ZM34.5686 154.136H32.5256V135.849C32.5256 129.666 38.0068 124.028 43.5627 124.028C49.1186 124.028 54.6122 129.283 54.6122 135.49V154.136H52.5568V147.484H34.5686V154.136ZM52.5568 145.765V136.331C52.5568 130.928 48.6452 125.734 43.5627 125.734C38.4802 125.734 34.5686 131.336 34.5686 136.677V145.765H52.5568ZM58.4116 139.447C58.3509 137.52 58.684 135.6 59.3909 133.804C60.0977 132.008 61.1636 130.373 62.5244 128.997C63.8851 127.621 65.5125 126.533 67.3084 125.798C69.1044 125.063 71.0316 124.696 72.9741 124.721C76.7112 124.721 81.5072 124.721 82.1176 128.962H79.377C78.3431 126.316 75.9264 126.921 72.401 126.921C65.5122 126.921 60.4546 132.819 60.4546 139.484C60.4574 141.294 60.8527 143.082 61.6136 144.727C62.3745 146.372 63.4832 147.835 64.8644 149.017C67.7919 151.712 71.2051 151.317 75.0918 151.317C83.2886 151.317 82.9772 145.827 82.9772 139.36H73.8336V137.641H85.0451C85.0451 146.161 85.5682 153.159 75.0793 153.159C70.3082 153.159 66.3593 153.406 63.1578 150.402C61.6309 149.013 60.4183 147.318 59.6001 145.43C58.782 143.541 58.3769 141.502 58.4116 139.447ZM90.6383 154.136V128.38L88.8694 128.801V125.462L91.6598 124.758H92.6937V154.136H90.6383ZM100.131 154.136H98.0752V135.49C98.0752 129.308 104.615 124.362 110.184 124.362C116.063 124.362 122.292 128.504 122.292 135.49V154.136H120.237V136.356C120.268 135.023 120.032 133.698 119.541 132.457C119.051 131.217 118.316 130.086 117.38 129.13C116.444 128.175 115.325 127.414 114.09 126.893C112.854 126.371 111.526 126.099 110.184 126.093C105.201 126.093 100.131 131.125 100.131 136.356V154.136ZM149.785 126.167V124.461H163.737V126.167H157.77V154.185H155.715V126.167H149.785ZM167.985 154.185V124.758H170.04V154.136L167.985 154.185ZM188.539 125.129C197.521 125.129 202.715 130.272 202.715 139.496C202.715 148.72 197.471 153.864 188.539 153.864C179.607 153.864 174.326 148.708 174.326 139.496C174.326 130.285 179.62 125.079 188.539 125.079V125.129ZM188.539 126.959C181.065 126.959 176.381 131.818 176.381 139.496C176.381 147.175 181.04 152.034 188.539 152.034C196.038 152.034 200.66 147.199 200.66 139.496C200.66 131.793 196.076 126.909 188.539 126.909V126.959ZM27.057 127.948L18.6733 137.295C18.2747 137.74 18.0753 138.074 17.8137 138.074C17.5521 138.074 17.3404 137.716 16.9417 137.295L8.13453 127.948V153.369C8.13453 153.851 7.86047 154.099 7.31235 154.099C6.76424 154.099 6.49018 153.851 6.49018 153.369V124.931C6.49018 124.461 6.76424 124.238 7.31235 124.238C7.6487 124.238 7.96013 124.844 8.73247 125.697L17.8137 135.787L26.5338 125.697C27.2812 124.832 27.6051 124.238 27.9414 124.238C28.4895 124.238 28.7636 124.461 28.7636 124.931V153.369C28.7636 153.851 28.4895 154.099 27.9414 154.099C27.3933 154.099 27.1192 153.851 27.1192 153.369L27.057 127.948Z" fill="#29252F"/>
</g>
<defs>
<clipPath id="clip0_547_14">
<rect width="229" height="154.136" fill="white"/>
</clipPath>
</defs>
</svg>
