<svg width="32" height="30" viewBox="0 0 32 30" fill="none" xmlns="http://www.w3.org/2000/svg">
<path id="Vector" d="M8.88889 0.0565186C3.98044 0.0565186 0 3.67052 0 8.12708V21.04C0 25.4966 3.98044 29.1105 8.88889 29.1105H23.1111C28.0196 29.1105 32 25.4966 32 21.04V8.12708C32 3.67052 28.0196 0.0565186 23.1111 0.0565186H8.88889ZM26.6667 3.28474C27.648 3.28474 28.4444 4.00787 28.4444 4.89886C28.4444 5.78985 27.648 6.51297 26.6667 6.51297C25.6853 6.51297 24.8889 5.78985 24.8889 4.89886C24.8889 4.00787 25.6853 3.28474 26.6667 3.28474ZM16 6.51297C20.9084 6.51297 24.8889 10.127 24.8889 14.5835C24.8889 19.0401 20.9084 22.6541 16 22.6541C11.0916 22.6541 7.11111 19.0401 7.11111 14.5835C7.11111 10.127 11.0916 6.51297 16 6.51297ZM16 9.7412C14.5855 9.7412 13.229 10.2514 12.2288 11.1595C11.2286 12.0676 10.6667 13.2993 10.6667 14.5835C10.6667 15.8678 11.2286 17.0995 12.2288 18.0076C13.229 18.9157 14.5855 19.4259 16 19.4259C17.4145 19.4259 18.771 18.9157 19.7712 18.0076C20.7714 17.0995 21.3333 15.8678 21.3333 14.5835C21.3333 13.2993 20.7714 12.0676 19.7712 11.1595C18.771 10.2514 17.4145 9.7412 16 9.7412Z" fill="#D69164"/>
</svg>
