<svg width="32" height="27" viewBox="0 0 32 27" fill="none" xmlns="http://www.w3.org/2000/svg">
<path d="M32 0.872437C31.7737 1.90413 26.643 25.3069 26.3259 26.7749L17.6847 19.516L11.844 23.9998L13.4617 18.2576C13.4617 18.2576 24.6214 8.0014 25.2935 7.40434C25.8346 6.9263 25.9479 6.75873 25.9479 6.59246C25.9479 6.37139 25.8226 6.21236 25.5333 6.21236C25.2732 6.21236 24.9199 6.43868 24.7326 6.54449C22.3527 7.89167 12.2158 13.1366 7.23079 15.7113C6.93079 15.6021 2.42679 13.96 0 13.0801C4.31662 11.4306 11.716 8.60404 18.6074 5.97248C22.2241 4.59141 25.6167 3.29711 28.1753 2.32274C30.3351 1.50024 31.4617 1.07437 32 0.872437Z" fill="#D69164"/>
</svg>
