<svg width="32" height="30" viewBox="0 0 32 30" fill="none" xmlns="http://www.w3.org/2000/svg">
<path d="M3.2 0.0565186C1.4375 0.0565186 0 1.36168 0 2.96192V26.2051C0 27.8054 1.4375 29.1105 3.2 29.1105H28.8C30.5625 29.1105 32 27.8054 32 26.2051V2.96192C32 1.36168 30.5625 0.0565186 28.8 0.0565186H3.2ZM9.6 5.86732H15.8C17.7188 5.86732 22.4 5.93542 22.4 9.54448C22.4 11.6952 20.7875 12.6258 20.05 12.9038V12.9946C21.95 12.9946 24 14.8105 24 16.808C24 18.9587 23.0125 21.847 16.65 21.847H9.6V5.86732ZM14.4 8.77273V11.6781C14.4 11.6781 15.8562 11.6781 16.1 11.6781C17.475 11.6781 17.6 10.5773 17.6 10.3162C17.6 10.1517 17.575 8.77273 16.05 8.77273H14.4ZM14.4 14.5835V18.9416C14.4 18.9416 16.4 18.8962 16.8 18.8962C18.875 18.8962 19.2 17.3017 19.2 16.7172C19.2 15.8319 18.65 14.5835 16.85 14.5835C16.4188 14.5835 14.4 14.5835 14.4 14.5835Z" fill="#D69164"/>
</svg>
