<svg width="32" height="30" viewBox="0 0 32 30" fill="none" xmlns="http://www.w3.org/2000/svg">
<path d="M27.3246 4.31024C24.3068 1.56886 20.2938 0.0579713 16.0184 0.0565186C7.20836 0.0565186 0.038402 6.56349 0.0352019 14.5625C0.0336018 17.1194 0.769638 19.6152 2.16811 21.8147L0 29.112L8.37322 27.3149C10.7077 28.4713 13.3351 29.08 16.0104 29.0815H16.0168C24.8252 29.0815 31.9952 22.5731 32 14.5755C32.0032 10.6981 30.3423 7.05308 27.3246 4.31024ZM23.838 19.7474C23.5052 20.5944 21.8747 21.4108 21.1419 21.4704C20.409 21.5314 19.7226 21.7711 16.3496 20.5639C12.2902 19.1111 9.72688 15.3324 9.52847 15.0913C9.32846 14.8487 7.89799 13.1257 7.89799 11.3417C7.89799 9.55766 8.93004 8.68019 9.29646 8.31845C9.66288 7.95525 10.0949 7.86518 10.3621 7.86518C10.6277 7.86518 10.8949 7.86518 11.127 7.8739C11.4118 7.88407 11.727 7.89714 12.0262 8.50004C12.3814 9.21771 13.1575 11.0104 13.2567 11.192C13.3559 11.3736 13.4231 11.5857 13.2903 11.8269C13.1575 12.0681 13.0903 12.2191 12.8918 12.4312C12.6918 12.6434 12.4726 12.9034 12.2934 13.0661C12.0934 13.2463 11.8854 13.4438 12.1174 13.8056C12.351 14.1688 13.1511 15.3557 14.3383 16.316C15.8648 17.5508 17.1497 17.9329 17.5497 18.116C17.9497 18.2976 18.1817 18.267 18.4153 18.0244C18.6489 17.7833 19.4138 16.9668 19.6794 16.6036C19.945 16.2404 20.2122 16.3014 20.5786 16.422C20.945 16.5426 22.9083 17.4201 23.3068 17.6017C23.7068 17.7833 23.9724 17.8733 24.0716 18.0244C24.1708 18.1741 24.1708 18.9005 23.838 19.7474Z" fill="#D69164"/>
</svg>
